HIERARCHY
ROOT Hips
{
	OFFSET 0.000000 0.000000 0.000000
	CHANNELS 6 Xposition Yposition Zposition Zrotation Yrotation Xrotation 
	JOINT LHipJoint
	{
		OFFSET 0.000000 0.000000 0.000000
		CHANNELS 3 Zrotation Yrotation Xrotation
		JOINT LeftUpLeg
		{
			OFFSET 1.363060 -1.794630 0.839290
			CHANNELS 3 Zrotation Yrotation Xrotation
			JOINT LeftLeg
			{
				OFFSET 2.448110 -6.726130 0.000000
				CHANNELS 3 Zrotation Yrotation Xrotation
				JOINT LeftFoot
				{
					OFFSET 2.562200 -7.039590 0.000000
					CHANNELS 3 Zrotation Yrotation Xrotation
					JOINT LeftToeBase
					{
						OFFSET 0.157640 -0.433110 2.322550
						CHANNELS 3 Zrotation Yrotation Xrotation
						End Site
						{
							OFFSET 0.000000 0.000000 0.000000
						}
					}
				}
			}
		}
	}
	JOINT RHipJoint
	{
		OFFSET 0.000000 0.000000 0.000000
		CHANNELS 3 Zrotation Yrotation Xrotation
		JOINT RightUpLeg
		{
			OFFSET -1.305520 -1.794630 0.839290
			CHANNELS 3 Zrotation Yrotation Xrotation
			JOINT RightLeg
			{
				OFFSET -2.542530 -6.985550 0.000000
				CHANNELS 3 Zrotation Yrotation Xrotation
				JOINT RightFoot
				{
					OFFSET -2.568260 -7.056230 0.000000
					CHANNELS 3 Zrotation Yrotation Xrotation
					JOINT RightToeBase
					{
						OFFSET -0.164730 -0.452590 2.363150
						CHANNELS 3 Zrotation Yrotation Xrotation
						End Site
						{
							OFFSET 0.000000 0.000000 0.000000
						}
					}
				}
			}
		}
	}
}
MOTION
Frames: 13
Frame Time: 0.008333
-9.923833 14.907147 -1.304747 -45.559296 79.041714 -15.187020 -8.025005 -1.986677 0.427167 -9.273577 -0.102602 -83.966994 0.049025 5.190405 63.599555 2.615684 9.959803 -12.536346 -0.279600 -0.000000 -20.238201 11.281706 -2.351645 -5.226349 11.836774 -12.659686 -17.780636 1.519870 -3.326348 52.355422 0.231422 5.448066 -11.156630 -0.297600 -0.000001 -81.300100
-9.708124 14.871783 -1.295564 -44.763211 78.996464 -14.598303 -8.062294 -1.951929 0.259742 -9.535412 0.170856 -83.691578 0.146061 5.332084 65.294220 2.620117 9.940388 -13.552820 -0.504099 0.000000 -19.377100 11.382841 -2.359449 -5.173153 11.296172 -12.710547 -17.529392 1.233249 -3.383490 53.252814 0.248863 5.228376 -8.936102 -0.151400 -0.000000 -82.149200
-9.495513 14.840108 -1.287055 -44.039277 78.996999 -14.051479 -8.099474 -1.913655 0.103161 -9.806650 0.376434 -83.338007 0.221818 5.452872 66.828631 2.655292 10.002253 -14.820326 -0.779000 0.000000 -18.665500 11.476643 -2.355685 -5.127073 10.816787 -12.729323 -17.436939 0.933971 -3.448003 54.311459 0.223671 4.809410 -6.701097 0.001299 0.000000 -82.282000
-9.286263 14.812521 -1.278627 -43.228347 79.047290 -13.389350 -8.139111 -1.867937 -0.041649 -10.102787 0.505237 -82.900451 0.278409 5.553754 68.198768 2.721792 10.162904 -16.257156 -1.097700 -0.000000 -18.131900 11.561592 -2.333356 -5.090624 10.371865 -12.731847 -17.514026 0.628664 -3.517364 55.538415 0.156026 4.191053 -4.525042 0.132700 0.000000 -81.672600
-9.080701 14.788902 -1.271154 -42.522819 79.125383 -12.797819 -8.180717 -1.826017 -0.172508 -10.374080 0.578026 -82.402860 0.323834 5.634127 69.422351 2.814392 10.414841 -17.773548 -1.450600 0.000000 -17.804900 11.635873 -2.297431 -5.058163 10.018074 -12.683227 -17.752129 0.328666 -3.589175 56.918215 0.044811 3.340466 -2.535157 0.210600 -0.000001 -80.228200
-8.879033 14.769393 -1.264435 -41.886408 79.224377 -12.240890 -8.225498 -1.788175 -0.289041 -10.617840 0.602028 -81.854382 0.361950 5.695356 70.505115 2.927115 10.749064 -19.282102 -1.826500 -0.000000 -17.698900 11.699061 -2.246615 -5.029009 9.753181 -12.583687 -18.152804 0.041176 -3.662751 58.444360 -0.105130 2.261276 -0.828983 0.210000 -0.000000 -77.983601
-8.681403 14.754088 -1.258406 -41.328363 79.333934 -11.727668 -8.274021 -1.756040 -0.391535 -10.825450 0.591129 -81.269190 0.396499 5.739273 71.456775 3.051686 11.145834 -20.707390 -2.211600 0.000000 -17.814100 11.751269 -2.182155 -5.001365 9.583812 -12.428146 -18.713593 -0.228219 -3.738476 60.104319 -0.287631 0.964964 0.501866 0.118500 0.000000 -75.010700
-8.487957 14.743006 -1.252974 -40.852250 79.444560 -11.263294 -8.326502 -1.730250 -0.481201 -10.993814 0.559854 -80.660785 0.429781 5.768158 72.286767 3.179338 11.580108 -21.993820 -2.590800 -0.000000 -18.132400 11.793185 -2.105785 -4.973686 9.511080 -12.214840 -19.430747 -0.476524 -3.817616 61.881463 -0.495679 -0.521370 1.389240 -0.058000 0.000000 -71.431000
-8.298757 14.736157 -1.247990 -40.451957 79.548790 -10.844137 -8.382997 -1.710622 -0.560047 -11.124153 0.522840 -80.039873 0.462416 5.784605 73.003797 3.301953 12.024406 -23.109580 -2.949700 0.000000 -18.618400 11.825721 -2.019516 -4.944602 9.530677 -11.944914 -20.298106 -0.703006 -3.901733 63.754847 -0.722172 -2.154000 1.794592 -0.294500 -0.000000 -67.394300
-8.113783 14.733525 -1.243300 -40.115934 79.640552 -10.462376 -8.443209 -1.696550 -0.630919 -11.221467 0.493693 -79.414252 0.493497 5.791235 73.615339 3.413315 12.453040 -24.047478 -3.277400 0.000000 -19.224000 11.849824 -1.925239 -4.913009 9.634288 -11.621260 -21.307118 -0.908540 -3.992241 65.699499 -0.960323 -3.875088 1.712866 -0.551300 -0.000000 -63.056701
-7.932950 14.734997 -1.238817 -39.828333 79.716239 -10.107052 -8.506655 -1.687105 -0.696978 -11.293063 0.483863 -78.787130 0.520933 5.790389 74.127446 3.509741 12.845227 -24.822481 -3.568500 -0.000000 -19.896400 11.866313 -1.824625 -4.877979 9.809995 -11.248705 -22.446664 -1.094765 -4.090082 67.687626 -1.203565 -5.617505 1.168909 -0.781400 0.000000 -58.560700
-7.756139 14.740425 -1.234428 -39.571837 79.774209 -9.766111 -8.572655 -1.681176 -0.761476 -11.347718 0.501773 -78.157898 0.542108 5.783983 74.545369 3.590318 13.188145 -25.465388 -3.823300 0.000000 -20.584700 11.875878 -1.718870 -4.838929 10.043582 -10.833878 -23.704277 -1.263575 -4.195613 69.690360 -1.445341 -7.311344 0.214516 -0.940700 -0.000000 -54.027700
-7.583149 14.749607 -1.230182 -39.347368 79.814072 -9.447162 -8.640242 -1.678140 -0.827427 -11.390926 0.553569 -77.521681 0.554459 5.773153 74.873589 3.656324 13.476581 -26.016632 -4.047600 0.000000 -21.245900 11.879211 -1.609345 -4.795669 10.323230 -10.384237 -25.063639 -1.416571 -4.308567 71.677629 -1.678867 -8.890411 -1.079458 -0.996100 0.000000 -49.541699
